<?xml version="1.0" encoding="UTF-8" standalone="no"?>
<!-- Generator: Adobe Illustrator 13.0.0, SVG Export Plug-In . SVG Version: 6.00 Build 14948)  -->

<svg
   xmlns:dc="http://purl.org/dc/elements/1.1/"
   xmlns:cc="http://creativecommons.org/ns#"
   xmlns:rdf="http://www.w3.org/1999/02/22-rdf-syntax-ns#"
   xmlns:svg="http://www.w3.org/2000/svg"
   xmlns="http://www.w3.org/2000/svg"
   xmlns:sodipodi="http://sodipodi.sourceforge.net/DTD/sodipodi-0.dtd"
   xmlns:inkscape="http://www.inkscape.org/namespaces/inkscape"
   version="1.1"
   id="Layer_1"
   x="0px"
   y="0px"
   width="396"
   height="396"
   viewBox="0 0 396 396"
   enable-background="new 0 0 500 500"
   xml:space="preserve"
   inkscape:version="0.91 r13725"
   sodipodi:docname="icon.svg"><metadata
     id="metadata23"><rdf:RDF><cc:Work
         rdf:about=""><dc:format>image/svg+xml</dc:format><dc:type
           rdf:resource="http://purl.org/dc/dcmitype/StillImage" /><dc:title /></cc:Work></rdf:RDF></metadata><defs
     id="defs21"><filter
       style="color-interpolation-filters:sRGB;"
       inkscape:label="Drop Shadow"
       id="filter4454"><feFlood
         flood-opacity="0.498039"
         flood-color="rgb(0,0,0)"
         result="flood"
         id="feFlood4456" /><feComposite
         in="flood"
         in2="SourceGraphic"
         operator="in"
         result="composite1"
         id="feComposite4458" /><feGaussianBlur
         in="composite1"
         stdDeviation="2"
         result="blur"
         id="feGaussianBlur4460" /><feOffset
         dx="4.57967e-15"
         dy="3"
         result="offset"
         id="feOffset4462" /><feComposite
         in="SourceGraphic"
         in2="offset"
         operator="over"
         result="composite2"
         id="feComposite4464" /></filter><filter
       style="color-interpolation-filters:sRGB;"
       inkscape:label="Drop Shadow"
       id="filter4466"><feFlood
         flood-opacity="0.498039"
         flood-color="rgb(0,0,0)"
         result="flood"
         id="feFlood4468" /><feComposite
         in="flood"
         in2="SourceGraphic"
         operator="in"
         result="composite1"
         id="feComposite4470" /><feGaussianBlur
         in="composite1"
         stdDeviation="2"
         result="blur"
         id="feGaussianBlur4472" /><feOffset
         dx="4.57967e-15"
         dy="3"
         result="offset"
         id="feOffset4474" /><feComposite
         in="SourceGraphic"
         in2="offset"
         operator="over"
         result="composite2"
         id="feComposite4476" /></filter><filter
       style="color-interpolation-filters:sRGB;"
       inkscape:label="Drop Shadow"
       id="filter4478"><feFlood
         flood-opacity="0.498039"
         flood-color="rgb(0,0,0)"
         result="flood"
         id="feFlood4480" /><feComposite
         in="flood"
         in2="SourceGraphic"
         operator="in"
         result="composite1"
         id="feComposite4482" /><feGaussianBlur
         in="composite1"
         stdDeviation="2"
         result="blur"
         id="feGaussianBlur4484" /><feOffset
         dx="4.57967e-15"
         dy="3"
         result="offset"
         id="feOffset4486" /><feComposite
         in="SourceGraphic"
         in2="offset"
         operator="over"
         result="composite2"
         id="feComposite4488" /></filter><filter
       style="color-interpolation-filters:sRGB;"
       inkscape:label="Drop Shadow"
       id="filter4490"><feFlood
         flood-opacity="0.498039"
         flood-color="rgb(0,0,0)"
         result="flood"
         id="feFlood4492" /><feComposite
         in="flood"
         in2="SourceGraphic"
         operator="in"
         result="composite1"
         id="feComposite4494" /><feGaussianBlur
         in="composite1"
         stdDeviation="2"
         result="blur"
         id="feGaussianBlur4496" /><feOffset
         dx="4.57967e-15"
         dy="3"
         result="offset"
         id="feOffset4498" /><feComposite
         in="SourceGraphic"
         in2="offset"
         operator="over"
         result="composite2"
         id="feComposite4500" /></filter><filter
       style="color-interpolation-filters:sRGB;"
       inkscape:label="Drop Shadow"
       id="filter4610"><feFlood
         flood-opacity="0.498039"
         flood-color="rgb(0,0,0)"
         result="flood"
         id="feFlood4612" /><feComposite
         in="flood"
         in2="SourceGraphic"
         operator="out"
         result="composite1"
         id="feComposite4614" /><feGaussianBlur
         in="composite1"
         stdDeviation="2"
         result="blur"
         id="feGaussianBlur4616" /><feOffset
         dx="4.57967e-15"
         dy="1"
         result="offset"
         id="feOffset4618" /><feComposite
         in="offset"
         in2="SourceGraphic"
         operator="atop"
         result="composite2"
         id="feComposite4620" /></filter><filter
       style="color-interpolation-filters:sRGB;"
       inkscape:label="Drop Shadow"
       id="filter4622"><feFlood
         flood-opacity="0.498039"
         flood-color="rgb(0,0,0)"
         result="flood"
         id="feFlood4624" /><feComposite
         in="flood"
         in2="SourceGraphic"
         operator="out"
         result="composite1"
         id="feComposite4626" /><feGaussianBlur
         in="composite1"
         stdDeviation="2"
         result="blur"
         id="feGaussianBlur4628" /><feOffset
         dx="4.57967e-15"
         dy="1"
         result="offset"
         id="feOffset4630" /><feComposite
         in="offset"
         in2="SourceGraphic"
         operator="atop"
         result="composite2"
         id="feComposite4632" /></filter><filter
       style="color-interpolation-filters:sRGB;"
       inkscape:label="Drop Shadow"
       id="filter4634"><feFlood
         flood-opacity="0.498039"
         flood-color="rgb(0,0,0)"
         result="flood"
         id="feFlood4636" /><feComposite
         in="flood"
         in2="SourceGraphic"
         operator="out"
         result="composite1"
         id="feComposite4638" /><feGaussianBlur
         in="composite1"
         stdDeviation="2"
         result="blur"
         id="feGaussianBlur4640" /><feOffset
         dx="4.57967e-15"
         dy="1"
         result="offset"
         id="feOffset4642" /><feComposite
         in="offset"
         in2="SourceGraphic"
         operator="atop"
         result="composite2"
         id="feComposite4644" /></filter><filter
       style="color-interpolation-filters:sRGB;"
       inkscape:label="Drop Shadow"
       id="filter4646"><feFlood
         flood-opacity="0.498039"
         flood-color="rgb(0,0,0)"
         result="flood"
         id="feFlood4648" /><feComposite
         in="flood"
         in2="SourceGraphic"
         operator="out"
         result="composite1"
         id="feComposite4650" /><feGaussianBlur
         in="composite1"
         stdDeviation="2"
         result="blur"
         id="feGaussianBlur4652" /><feOffset
         dx="4.57967e-15"
         dy="1"
         result="offset"
         id="feOffset4654" /><feComposite
         in="offset"
         in2="SourceGraphic"
         operator="atop"
         result="composite2"
         id="feComposite4656" /></filter><filter
       style="color-interpolation-filters:sRGB;"
       inkscape:label="Drop Shadow"
       id="filter4658"><feFlood
         flood-opacity="0.498039"
         flood-color="rgb(0,0,0)"
         result="flood"
         id="feFlood4660" /><feComposite
         in="flood"
         in2="SourceGraphic"
         operator="in"
         result="composite1"
         id="feComposite4662" /><feGaussianBlur
         in="composite1"
         stdDeviation="2"
         result="blur"
         id="feGaussianBlur4664" /><feOffset
         dx="4.57967e-15"
         dy="1"
         result="offset"
         id="feOffset4666" /><feComposite
         in="SourceGraphic"
         in2="offset"
         operator="over"
         result="composite2"
         id="feComposite4668" /></filter></defs><sodipodi:namedview
     pagecolor="#ffffff"
     bordercolor="#666666"
     borderopacity="1"
     objecttolerance="10"
     gridtolerance="10"
     guidetolerance="10"
     inkscape:pageopacity="0"
     inkscape:pageshadow="2"
     inkscape:window-width="1875"
     inkscape:window-height="1056"
     id="namedview19"
     showgrid="false"
     inkscape:zoom="2"
     inkscape:cx="191.45948"
     inkscape:cy="172.32964"
     inkscape:window-x="45"
     inkscape:window-y="24"
     inkscape:window-maximized="1"
     inkscape:current-layer="Layer_1"
     fit-margin-top="36"
     fit-margin-left="26"
     fit-margin-right="26"
     fit-margin-bottom="36" /><g
     id="max_width__x2F__height"
     display="none"
     style="display:none"
     transform="translate(-51.674,-12.539116)"><path
       display="inline"
       d="m 499.001,1 0,498 L 1,499 1,1 499.001,1 m 1,-1 L 0,0 l 0,500 500.001,0 0,-500 0,0 z"
       id="path4"
       inkscape:connector-curvature="0"
       style="display:inline" /></g><path
     style="fill:#bb8a48;fill-opacity:1;filter:url(#filter4490)"
     d="M 128.58984 25.330078 C 127.90401 25.301953 127.22322 25.480062 126.63672 25.882812 C 125.07272 26.959812 124.77566 29.244328 125.97266 30.986328 L 146.13867 60.257812 C 114.07567 75.173812 91.591562 103.51766 88.726562 136.59766 L 307.04297 136.59766 C 304.18797 103.51766 281.70164 75.175766 249.64062 60.259766 L 269.79883 30.986328 C 270.99583 29.246328 270.69781 26.962812 269.13281 25.882812 C 267.56981 24.808812 265.32862 25.340031 264.14062 27.082031 L 243.18945 57.490234 C 229.38245 52.051234 214.05062 49.021484 197.89062 49.021484 C 181.73063 49.021484 166.39389 52.048234 152.58789 57.490234 L 131.64062 27.080078 C 130.89 25.992578 129.7329 25.376953 128.58984 25.330078 z M 152.28125 82.240234 C 158.94925 82.240234 164.35547 87.647306 164.35547 94.320312 C 164.35647 100.99131 158.94925 106.39844 152.28125 106.39844 C 145.60825 106.39844 140.20117 100.99231 140.20117 94.320312 C 140.20117 87.649306 145.60525 82.240234 152.28125 82.240234 z M 243.48633 82.240234 C 250.16133 82.240234 255.56641 87.649307 255.56641 94.320312 C 255.56641 100.99131 250.15933 106.39844 243.48633 106.39844 C 236.81833 106.39844 231.41211 100.99231 231.41211 94.320312 C 231.41211 87.647306 236.81833 82.240234 243.48633 82.240234 z "
     id="path7" /><path
     style="fill:#cd9945;fill-opacity:1;filter:url(#filter4466)"
     inkscape:connector-curvature="0"
     id="path13"
     d="m 74.709,274.55889 c 0,13.45 -10.904,24.354 -24.355,24.354 l 0,0 c -13.45,0 -24.354,-10.904 -24.354,-24.354 l 0,-98.508 c 0,-13.45 10.904,-24.354 24.354,-24.354 l 0,0 c 13.451,0 24.355,10.904 24.355,24.354 l 0,98.508 z" /><path
     style="fill:#cd9945;fill-opacity:1"
     d="m 89.836914,152.44917 0,177.91602 c 0,10.566 8.56577,19.13281 19.134766,19.13281 l 22.63281,0 0,0.002 48.70899,0 0,-0.002 37.37109,0 0,0.002 48.70703,0 0,-0.002 22.63477,0 c 10.569,0 19.13672,-8.56181 19.13672,-19.13281 l 0,-177.91602 -218.326176,0 z"
     id="path15"
     inkscape:connector-curvature="0" /><path
     style="fill:#cd9945;fill-opacity:1;filter:url(#filter4454)"
     inkscape:connector-curvature="0"
     id="path17"
     d="m 321.06,274.55889 c 0,13.45 10.903,24.354 24.354,24.354 l 0,0 c 13.45,0 24.354,-10.904 24.354,-24.354 l 0,-98.508 c 0,-13.45 -10.904,-24.354 -24.354,-24.354 l 0,0 c -13.451,0 -24.354,10.904 -24.354,24.354 l 0,98.508 z" /><path
     inkscape:connector-curvature="0"
     style="fill:#bb8a48;fill-opacity:1;filter:url(#filter4478)"
     d="m 88.719948,152.44917 0,177.61523 c 0,10.566 8.56771,19.13282 19.136732,19.13282 l 22.63086,0 0,0.002 48.71093,0 0,-0.002 37.36913,0 0,0.002 48.70703,0 0,-0.002 22.63672,0 c 10.569,0 19.13672,-8.56182 19.13672,-19.13282 l 0,-177.61523 -12.82031,0 0,174.89844 c 0,4.432 -3.568,8 -8,8 l -176.68749,0 c -4.432,0 -8.00001,-3.568 -8.00001,-8 l 0,-174.89844 -12.820311,0 z"
     id="path15-5" /><rect
     style="opacity:1;fill:#bd873e;fill-opacity:1;stroke:none;stroke-width:0.1;stroke-miterlimit:4;stroke-dasharray:none;stroke-opacity:1;filter:url(#filter4646)"
     id="rect4307"
     width="180.75"
     height="35"
     x="107.509"
     y="163.99265" /><rect
     style="opacity:1;fill:#bd873e;fill-opacity:1;stroke:none;stroke-width:0.1;stroke-miterlimit:4;stroke-dasharray:none;stroke-opacity:1;filter:url(#filter4634)"
     id="rect4307-9"
     width="180.75"
     height="35"
     x="107.509"
     y="205.99265" /><rect
     style="opacity:1;fill:#bd873e;fill-opacity:1;stroke:none;stroke-width:0.1;stroke-miterlimit:4;stroke-dasharray:none;stroke-opacity:1;filter:url(#filter4622)"
     id="rect4307-9-2"
     width="180.75"
     height="35"
     x="107.509"
     y="247.99265" /><rect
     style="opacity:1;fill:#bd873e;fill-opacity:1;stroke:none;stroke-width:0.1;stroke-miterlimit:4;stroke-dasharray:none;stroke-opacity:1;filter:url(#filter4610)"
     id="rect4307-9-2-8"
     width="180.75"
     height="35"
     x="107.509"
     y="289.99265" /><rect
     style="opacity:1;fill:#bb8a48;fill-opacity:1;stroke:none;stroke-width:0.1;stroke-miterlimit:4;stroke-dasharray:none;stroke-opacity:1;filter:url(#filter4658)"
     id="rect4356"
     width="206.34982"
     height="62.5"
     x="123.18113"
     y="333.51636"
     transform="matrix(0.88357371,-0.48414351,0,0.99902929,-2.1182417,-10.252399)" /></svg>